<svg width="13" height="13" viewBox="0 0 13 13" fill="none" xmlns="http://www.w3.org/2000/svg">
<path d="M11.5556 12.7386L7.46586 8.66086C7.12941 8.92717 6.73228 9.13606 6.27448 9.28754C5.81667 9.43901 5.32045 9.51474 4.78581 9.51474C3.4497 9.51474 2.31804 9.05004 1.39083 8.12064C0.463609 7.19124 0 6.07015 0 4.75737C0 3.44459 0.464079 2.3235 1.39224 1.3941C2.32039 0.464701 3.44288 0 4.75971 0C6.07653 0 7.19612 0.464701 8.11847 1.3941C9.04083 2.3235 9.50201 3.44546 9.50201 4.75999C9.50201 5.28103 9.4295 5.76519 9.28447 6.21247C9.13945 6.65974 8.92191 7.08088 8.63186 7.47587L12.7564 11.571C12.9188 11.7388 13 11.9347 13 12.1587C13 12.3827 12.9135 12.5755 12.7405 12.7371C12.5737 12.9124 12.3738 13 12.1409 13C11.9079 13 11.7128 12.9129 11.5556 12.7386ZM4.77455 7.87668C5.6435 7.87668 6.376 7.57317 6.97205 6.96615C7.56811 6.35914 7.86613 5.62288 7.86613 4.75737C7.86613 3.89187 7.56725 3.15561 6.9695 2.54859C6.37174 1.94158 5.64009 1.63807 4.77455 1.63807C3.89934 1.63807 3.15743 1.94158 2.5488 2.54859C1.94018 3.15561 1.63588 3.89187 1.63588 4.75737C1.63588 5.62288 1.93933 6.35914 2.54624 6.96615C3.15316 7.57317 3.89593 7.87668 4.77455 7.87668Z" fill="#004A8C"/>
</svg>
